HIERARCHY
ROOT HipCenter
{
    OFFSET 0.0 0.0 -0.0
    CHANNELS 6 Xposition Yposition Zposition Zrotation Xrotation Yrotation
    JOINT Spine
    {
        OFFSET 0.0 11.131895065307617 0.0
        CHANNELS 3 Zrotation Xrotation Yrotation
        JOINT ShoulderCenter
        {
            OFFSET 0.0 30.930742263793945 0.0
            CHANNELS 3 Zrotation Xrotation Yrotation
            JOINT LeftShoulder
            {
                OFFSET 18.556081771850586 0.0 0.0
                CHANNELS 3 Zrotation Xrotation Yrotation
                JOINT LeftElbow
                {
                    OFFSET 24.320457458496094 0.0 0.0
                    CHANNELS 3 Zrotation Xrotation Yrotation
                    JOINT LeftWrist
                    {
                        OFFSET 27.56960678100586 0.0 0.0
                        CHANNELS 3 Zrotation Xrotation Yrotation
                        JOINT LeftHand
                        {
                            OFFSET 2.7608699798583984 0.0 0.0
                            CHANNELS 3 Zrotation Xrotation Yrotation
                            End Site
                            {
                                OFFSET 1.104348063468933 0.0 0.0
                            }
                        }
                    }
                }
            }
            JOINT RightShoulder
            {
                OFFSET -18.556081771850586 0.0 0.0
                CHANNELS 3 Zrotation Xrotation Yrotation
                JOINT RightElbow
                {
                    OFFSET -24.320457458496094 0.0 0.0
                    CHANNELS 3 Zrotation Xrotation Yrotation
                    JOINT RightWrist
                    {
                        OFFSET -27.56960678100586 0.0 0.0
                        CHANNELS 3 Zrotation Xrotation Yrotation
                        JOINT RightHand
                        {
                            OFFSET -2.7608699798583984 0.0 0.0
                            CHANNELS 3 Zrotation Xrotation Yrotation
                            End Site
                            {
                                OFFSET -1.104348063468933 0.0 0.0
                            }
                        }
                    }
                }
            }
            End Site
            {
                OFFSET 0.0 12.372296333312988 0.0
            }
        }
    }
    JOINT LeftHip
    {
        OFFSET 21.54608917236328 0.0 0.0
        CHANNELS 3 Zrotation Xrotation Yrotation
        JOINT LeftKnee
        {
            OFFSET 0.0 -35.15449523925781 0.0
            CHANNELS 3 Zrotation Xrotation Yrotation
            JOINT LeftAnkle
            {
                OFFSET 0.0 -39.30370330810547 0.0
                CHANNELS 3 Zrotation Xrotation Yrotation
                JOINT LeftFoot
                {
                    OFFSET 0.0 -9.152200698852539 0.0
                    CHANNELS 3 Zrotation Xrotation Yrotation
                    End Site
                    {
                        OFFSET 0.0 0.0 3.6608798503875732
                    }
                }
            }
        }
    }
    JOINT RightHip
    {
        OFFSET -21.54608917236328 0.0 0.0
        CHANNELS 3 Zrotation Xrotation Yrotation
        JOINT RightKnee
        {
            OFFSET 0.0 -35.15449523925781 0.0
            CHANNELS 3 Zrotation Xrotation Yrotation
            JOINT RightAnkle
            {
                OFFSET 0.0 -39.30370330810547 0.0
                CHANNELS 3 Zrotation Xrotation Yrotation
                JOINT RightFoot
                {
                    OFFSET 0.0 -9.152200698852539 0.0
                    CHANNELS 3 Zrotation Xrotation Yrotation
                    End Site
                    {
                        OFFSET 0.0 0.0 3.6608798503875732
                    }
                }
            }
        }
    }
}
MOTION
Frames: 6
Frame Time: 0.03333333333333333
27.299999237060547 16.30000114440918 18.099998474121094 31.675467311169353 3.1093467434986617 -91.98421370004863 -0.43456960536185296 -13.467645206221855 -0.5790508062525945 -5.966656630845454e-07 -8.40302808740537e-07 0.9605670138592035 104.39757610170648 -1.0719243130303793 172.96067422304415 -9.31065642982837e-07 4.40261816607512e-06 60.69976295686253 -179.99999608506604 -80.11907998786016 -138.4607508903365 -2.3854160110976376e-15 3.310429723537619e-32 -1.5902773407317584e-15 -126.48929156036125 -7.501866561263171 179.37202812394221 1.7568653878921489e-06 -8.883313104512303e-07 -67.4446603137682 179.9999920767979 -69.35138844850569 151.7209609536405 2.2069531490250793e-32 -1.5902773407317584e-15 1.5902773407317584e-15 -51.457837295254514 -70.30784592973738 -38.16516943696109 21.438690450568377 65.40193578709085 -34.959018368366756 -173.00209211435717 -64.69671748816532 -160.2164529106541 0.0 0.0 0.0 15.521381052451332 -16.01993160178857 25.067949028829954 0.05199943019013501 0.1855940543716938 0.04876197658531111 -82.33338811936332 -63.476234278449255 -97.87371006740172 -3.1805546814635168e-15 8.827812596100317e-32 -3.1805546814635168e-15
24.0 20.700000762939453 18.600000381469727 33.546113851644755 3.628499655999394 -93.18623085901697 0.18681125285085554 -13.554611587241995 -0.2980806608399323 1.3714507043655614e-06 -1.084997213503348e-06 0.9197461478171741 104.58697731503572 -0.44094128475491956 175.5073146986865 -2.0201985528345685e-09 8.807272822053536e-07 61.581620573396066 -179.99999627507864 -82.76808920624435 -138.89829786705752 -4.770832022195275e-15 3.1805546814635164e-15 6.3611093629270335e-15 -126.23391596462628 -7.601191746760065 -177.86304602989745 -3.1120941093796253e-06 -7.071032235287864e-07 -67.75252469695816 179.9999982732663 -70.88075205164637 152.00629991024002 6.3611093629270335e-15 0.0 0.0 -34.291001108145316 -67.36445797177204 -23.218414343469213 12.651388272665445 56.95167788601443 -28.58747661203196 -174.8505898564553 -67.10292510340523 -159.16938731925075 0.0 6.361109362927033e-15 0.0 14.430529678160571 -20.81147420151936 23.596087911752246 1.2178912113376732 4.487769937895933 1.2906899475275337 -70.6994900073209 -48.45000006102308 -85.61086224635937 0.0 0.0 1.5902773407317582e-15
20.900001525878906 23.80000114440918 19.100000381469727 33.69008365711274 3.0727194860491154 -95.02813990993613 0.20910047976133067 -12.895329867583479 -0.2562842290284811 7.052410452587083e-07 2.952692005050492e-07 1.1245567448900162 104.90462881991809 0.6631671202935295 177.1364673546783 -6.801677634391357e-07 -9.102516725086978e-08 61.74018149330466 -179.99996358497606 -80.4761510938701 -138.32964226618586 6.361109362927035e-15 -3.531125038440127e-31 -6.361109362927035e-15 -126.30426780264614 -8.732543647902267 -175.37754240287063 1.8445592693580002e-06 -1.875271829465928e-06 -65.9043277655488 179.99998932152667 -74.71972746046312 151.29622634318235 -4.4139062980501586e-32 -1.5902773407317584e-15 -3.1805546814635168e-15 -21.368552162268298 -61.23037239835565 -14.641170616849834 3.302797374395142 48.23844430567706 -20.717210093227035 179.38212522720616 -68.7344216211914 -164.18021997204718 0.0 0.0 0.0 11.746243895872713 -31.705873949802495 18.911332938509887 10.370611783433466 24.21035755024258 5.294987468957327 -52.19068138062247 -35.83799744722603 -49.942079976044546 -3.1805546814635168e-15 -3.1805546814635168e-15 -3.975693351829397e-16
17.80000114440918 25.400001525878906 19.30000114440918 32.55001079001116 2.567199876662089 -95.69442401919453 -0.4129226061806002 -11.889749357774056 -0.7650143431377938 5.975097935807565e-07 6.958788837933477e-07 0.3931973975070876 105.87103021411001 1.0383291521763225 178.40694683825413 -2.632652675763816e-06 -3.2036510544109664e-06 60.79559750259052 179.99998717051048 -82.82179256007385 -135.34230024221898 -7.951386703658792e-15 -3.3104297235376187e-31 4.770832022195275e-15 -124.95769486175928 -7.934313098603724 -172.3596309006419 3.1163977492204934e-06 4.788497653091655e-07 -62.72429996313161 -179.99999752997186 -76.88238982179622 150.89262656797928 -6.3611093629270335e-15 0.0 0.0 -16.384176297645666 -53.152144620742085 -16.033482519206412 -3.8590127944435872 40.23985596243352 -12.764403653610698 173.80867993243385 -70.19391380336872 -172.05182574242536 0.0 0.0 3.1805546814635164e-15 7.442789500652462 -44.12232094635004 10.017101298587836 26.832919452259283 49.61477151577435 3.3485562258817185 -53.287121014817075 -33.4780424794277 -39.41573848173075 0.0 0.0 4.1993261028698e-15
14.399999618530273 26.19999885559082 19.30000114440918 30.69972278098537 2.051862355333738 -95.85870688193022 -0.966730497405403 -11.099979175410857 -0.885741680118747 -2.1543044368326853e-06 9.823882647955786e-07 -0.7678972142229971 106.77232230126654 1.2918736699747404 178.17783533138638 -1.8742623062066818e-06 -4.265824679214416e-06 61.77741379533898 -179.99999405763904 -84.70042527643565 -138.20995018919209 1.5902773407317584e-15 2.2069531490250793e-32 1.5902773407317584e-15 -123.56153087369775 -5.553388485064607 -168.4203417859674 2.0898353164442015e-06 1.6207523585951344e-06 -58.67161663091128 -179.99999507685303 -80.23650382857547 150.57301400706854 0.0 -3.1805546814635164e-15 0.0 -14.313541684159324 -46.36354376646285 -17.471827031024844 -6.919962155311959 35.692478301020294 -8.941172865809195 165.27849357305442 -69.06522036309788 177.65204373324985 0.0 0.0 0.0 3.3479314269585867 -54.755953862893435 -0.19128511007188692 47.46471652536514 67.51497737817185 -11.748730868797109 -70.75934283608817 -39.7081294206124 -55.05426595249454 0.0 0.0 -3.975693351829396e-15
10.899999618530273 26.499998092651367 19.100000381469727 29.55368664078594 1.5411175128249512 -96.32453142397954 -1.1753559217253435 -11.232970675777372 -0.7902726587832998 -1.7213578161620546e-06 1.233622295608997e-06 -0.9106373856445499 107.32234250129524 1.1906888023434243 177.55327080998137 -1.41161447636946e-06 1.281179732008786e-07 62.37717060162924 -179.99999149599924 -82.2767779534792 -138.17951386142025 0.0 0.0 6.361109362927032e-15 -122.98074621066206 -3.237091081076369 -164.2238703453332 3.3841215115810526e-07 -4.7260773338535265e-08 -53.003277436174685 -179.9999695293353 -79.87540930711955 150.35168730011333 6.3611093629270335e-15 1.7655625192200634e-31 3.1805546814635168e-15 -12.686425192348542 -41.89100690858471 -18.070845897394907 -8.862907756701105 34.00959010906207 -7.6902816814461605 156.97818480524802 -67.38981319155316 169.0802192163117 6.361109362927032e-15 1.7655625192200634e-31 3.180554681463516e-15 3.7877863671033936 -61.97610032481884 -3.7990709565229754 44.754045273358244 72.76609939038447 -10.386544472833473 -89.4935032831236 -43.3514678842413 -84.60768753704264 -6.361109362927033e-15 4.855296927855174e-31 -8.74652537402467e-15
